{"title":"Sector.4.Extraction.2014.DVDRip.XviD-iFT","uid":10601877,"size":767548305,"categoryP":"video","categoryS":"movies","magnet":"?xt=urn:btih:bf7e04647e88ad04d5ed1caddb6c41f21cd38af9&amp;dn=Sector.4.Extraction.2014.DVDRip.XviD-iFT&amp;tr=udp%3A%2F%2Ftracker.openbittorrent.com%3A80&amp;tr=udp%3A%2F%2Fopen.demonii.com%3A1337&amp;tr=udp%3A%2F%2Ftracker.coppersurfer.tk%3A6969&amp;tr=udp%3A%2F%2Fexodus.desync.com%3A6969","seeders":37,"leechers":0,"uploader":"xxxlavalxxx","files":-1,"time":1405936197,"description":"[IMG]http://i.imgur.com/teBrRq9.png[/IMG]\n\n &lt;a href=&quot;\nhttp://www.imdb.com/title/tt3099370/&quot; rel=&quot;nofollow&quot; target=&quot;_NEW&quot;&gt;\nhttp://www.imdb.com/title/tt3099370/&lt;/a&gt;\n\n\nWhile on a top-secret mission in Sector 4, the most dangerous area of the Middle East, a team of Private Military Contractors known as Black Knight are ambushed and taken hostage. Team leader Nash Olsen (Olivier Gruner) escapes captivity and is rescued by the U.S. government, only to discover by Black Knight Commander (Eric Roberts) that a rescue mission is impossible. Forced to choose between his family or upholding the Black Knight motto &quot;No One Left Behind,&quot; Nash begins a one-man rescue attempt to save his team, discovering there may be more to this mission than he thinks.\n\nDirector: Olivier Gruner\nWriters: Olivier Gruner, Richard Pierce\nStars: Salman Bokhari, Steven Dell, Jillian Alysse \nGenres: Action | War\nCountry: USA\nLanguage: English\n\n\n\nFormat                                   : AVI\nFormat/Info                              : Audio Video Interleave\nFile size                                : 732 MiB\nDuration                                 : 1h 29mn\nOverall bit rate                         : 1 141 Kbps\n\nVideo\nID                                       : 0\nFormat                                   : MPEG-4 Visual\nFormat profile                           : Simple@L3\nFormat settings, BVOP                    : No\nFormat settings, QPel                    : No\nFormat settings, GMC                     : No warppoints\nFormat settings, Matrix                  : Default (H.263)\nCodec ID                                 : XVID\nCodec ID/Hint                            : XviD\nDuration                                 : 1h 29mn\nBit rate                                 : 1 000 Kbps\nWidth                                    : 640 pixels\nHeight                                   : 352 pixels\nDisplay aspect ratio                     : 16:9\nFrame rate                               : 23.976 fps\nColor space                              : YUV\nChroma subsampling                       : 4:2:0\nBit depth                                : 8 bits\nScan type                                : Progressive\nCompression mode                         : Lossy\nBits/(Pixel*Frame)                       : 0.185\nStream size                              : 642 MiB (88%)\nWriting library                          : XviD 1.1.2 (UTC 2006-11-01)\n\nAudio\nID                                       : 1\nFormat                                   : MPEG Audio\nFormat version                           : Version 1\nFormat profile                           : Layer 3\nMode                                     : Joint stereo\nCodec ID                                 : 55\nCodec ID/Hint                            : MP3\nDuration                                 : 1h 29mn\nSource duration                          : 1h 29mn\nBit rate mode                            : Constant\nBit rate                                 : 128 Kbps\nChannel(s)                               : 2 channels\nSampling rate                            : 48.0 KHz\nCompression mode                         : Lossy\nStream size                              : 82.1 MiB (11%)\nAlignment                                : Split accross interleaves\nInterleave, duration                     : 24 ms (0.58 video frame)\nWriting library                          : LAME3.98\n\n\n\n\nscreens\n &lt;a href=&quot;\nhttp://i.imgur.com/jMuTv88.jpg&quot; rel=&quot;nofollow&quot; target=&quot;_NEW&quot;&gt;\nhttp://i.imgur.com/jMuTv88.jpg&lt;/a&gt; &lt;a href=&quot;\nhttp://i.imgur.com/16B6bTz.jpg&quot; rel=&quot;nofollow&quot; target=&quot;_NEW&quot;&gt;\nhttp://i.imgur.com/16B6bTz.jpg&lt;/a&gt; &lt;a href=&quot;\nhttp://i.imgur.com/bzkNIr0.jpg&quot; rel=&quot;nofollow&quot; target=&quot;_NEW&quot;&gt;\nhttp://i.imgur.com/bzkNIr0.jpg&lt;/a&gt; &lt;a href=&quot;\nhttp://i.imgur.com/0LiQG9x.jpg&quot; rel=&quot;nofollow&quot; target=&quot;_NEW&quot;&gt;\nhttp://i.imgur.com/0LiQG9x.jpg&lt;/a&gt; &lt;a href=&quot;\nhttp://i.imgur.com/1E0o8ue.jpg&quot; rel=&quot;nofollow&quot; target=&quot;_NEW&quot;&gt;\nhttp://i.imgur.com/1E0o8ue.jpg&lt;/a&gt;","torrent":{"xt":"urn:btih:bf7e04647e88ad04d5ed1caddb6c41f21cd38af9","amp;dn":"Sector.4.Extraction.2014.DVDRip.XviD-iFT","amp;tr":["udp%3A%2F%2Ftracker.openbittorrent.com%3A80","udp%3A%2F%2Fopen.demonii.com%3A1337","udp%3A%2F%2Ftracker.coppersurfer.tk%3A6969","udp%3A%2F%2Fexodus.desync.com%3A6969"],"infoHash":"bf7e04647e88ad04d5ed1caddb6c41f21cd38af9","infoHashBuffer":{"type":"Buffer","data":[191,126,4,100,126,136,173,4,213,237,28,173,219,108,65,242,28,211,138,249]},"announce":[],"urlList":[]}}